STARTFONT 2.1
FONT -Misc-PixelConsole-Medium-R-Normal-sans-9-90-75-75-M-50-iso8859-1
SIZE 9 75 75
FONTBOUNDINGBOX 6 9 0 -2
COMMENT "Generated by fontforge, http://fontforge.sourceforge.net"
STARTPROPERTIES 21
FONTNAME_REGISTRY "5x9"
FOUNDRY "Misc"
FAMILY_NAME "PixelConsole"
WEIGHT_NAME "Medium"
SLANT "R"
SETWIDTH_NAME "Normal"
ADD_STYLE_NAME ""
PIXEL_SIZE 9
POINT_SIZE 90
RESOLUTION_X 75
RESOLUTION_Y 75
SPACING "M"
AVERAGE_WIDTH 50
CHARSET_REGISTRY "iso8859"
CHARSET_ENCODING "1"
COPYRIGHT "Created by Wex,,, with FontForge 2.0 (http://fontforge.sf.net)"
WEIGHT 10
RESOLUTION 103
X_HEIGHT 2147483647
QUAD_WIDTH 5
_XMBDFED_INFO "Edited with xmbdfed 4.5."
ENDPROPERTIES
CHARS 223
STARTCHAR char0
ENCODING 0
SWIDTH 640 0
DWIDTH 5 0
BBX 0 0 0 0
BITMAP
ENDCHAR
STARTCHAR char1
ENCODING 1
SWIDTH 640 0
DWIDTH 5 0
BBX 4 5 1 0
BITMAP
60
F0
F0
F0
60
ENDCHAR
STARTCHAR char2
ENCODING 2
SWIDTH 640 0
DWIDTH 5 0
BBX 4 8 1 -2
BITMAP
50
A0
50
A0
50
A0
50
A0
ENDCHAR
STARTCHAR char3
ENCODING 3
SWIDTH 640 0
DWIDTH 5 0
BBX 4 7 1 -1
BITMAP
A0
E0
A0
00
70
20
20
ENDCHAR
STARTCHAR char4
ENCODING 4
SWIDTH 640 0
DWIDTH 5 0
BBX 4 7 1 -1
BITMAP
C0
80
C0
B0
20
30
20
ENDCHAR
STARTCHAR char5
ENCODING 5
SWIDTH 640 0
DWIDTH 5 0
BBX 4 8 1 -2
BITMAP
60
80
60
00
60
50
60
50
ENDCHAR
STARTCHAR char6
ENCODING 6
SWIDTH 640 0
DWIDTH 5 0
BBX 4 8 1 -2
BITMAP
80
80
80
C0
30
20
30
20
ENDCHAR
STARTCHAR char7
ENCODING 7
SWIDTH 640 0
DWIDTH 5 0
BBX 4 3 1 2
BITMAP
60
90
60
ENDCHAR
STARTCHAR char8
ENCODING 8
SWIDTH 640 0
DWIDTH 5 0
BBX 3 5 1 0
BITMAP
40
E0
40
00
E0
ENDCHAR
STARTCHAR char9
ENCODING 9
SWIDTH 640 0
DWIDTH 5 0
BBX 4 8 1 -2
BITMAP
90
D0
B0
90
20
20
20
30
ENDCHAR
STARTCHAR char10
ENCODING 10
SWIDTH 640 0
DWIDTH 5 0
BBX 4 7 1 -1
BITMAP
A0
A0
40
00
70
20
20
ENDCHAR
STARTCHAR char11
ENCODING 11
SWIDTH 640 0
DWIDTH 5 0
BBX 3 5 0 2
BITMAP
20
20
20
20
E0
ENDCHAR
STARTCHAR char12
ENCODING 12
SWIDTH 640 0
DWIDTH 5 0
BBX 3 5 0 -2
BITMAP
E0
20
20
20
20
ENDCHAR
STARTCHAR char13
ENCODING 13
SWIDTH 640 0
DWIDTH 5 0
BBX 3 5 2 -2
BITMAP
E0
80
80
80
80
ENDCHAR
STARTCHAR char14
ENCODING 14
SWIDTH 640 0
DWIDTH 5 0
BBX 3 5 2 2
BITMAP
80
80
80
80
E0
ENDCHAR
STARTCHAR char15
ENCODING 15
SWIDTH 640 0
DWIDTH 5 0
BBX 5 9 0 -2
BITMAP
20
20
20
20
F8
20
20
20
20
ENDCHAR
STARTCHAR char16
ENCODING 16
SWIDTH 640 0
DWIDTH 5 0
BBX 5 1 0 5
BITMAP
F8
ENDCHAR
STARTCHAR char17
ENCODING 17
SWIDTH 640 0
DWIDTH 5 0
BBX 5 1 0 3
BITMAP
F8
ENDCHAR
STARTCHAR char18
ENCODING 18
SWIDTH 640 0
DWIDTH 5 0
BBX 5 1 0 2
BITMAP
F8
ENDCHAR
STARTCHAR char19
ENCODING 19
SWIDTH 640 0
DWIDTH 5 0
BBX 5 1 0 1
BITMAP
F8
ENDCHAR
STARTCHAR char20
ENCODING 20
SWIDTH 640 0
DWIDTH 5 0
BBX 5 1 0 -1
BITMAP
F8
ENDCHAR
STARTCHAR char21
ENCODING 21
SWIDTH 640 0
DWIDTH 5 0
BBX 3 9 2 -2
BITMAP
80
80
80
80
E0
80
80
80
80
ENDCHAR
STARTCHAR char22
ENCODING 22
SWIDTH 640 0
DWIDTH 5 0
BBX 3 9 0 -2
BITMAP
20
20
20
20
E0
20
20
20
20
ENDCHAR
STARTCHAR char23
ENCODING 23
SWIDTH 640 0
DWIDTH 5 0
BBX 5 5 0 2
BITMAP
20
20
20
20
F8
ENDCHAR
STARTCHAR char24
ENCODING 24
SWIDTH 640 0
DWIDTH 5 0
BBX 5 5 0 -2
BITMAP
F8
20
20
20
20
ENDCHAR
STARTCHAR char25
ENCODING 25
SWIDTH 640 0
DWIDTH 5 0
BBX 1 9 2 -2
BITMAP
80
80
80
80
80
80
80
80
80
ENDCHAR
STARTCHAR char26
ENCODING 26
SWIDTH 640 0
DWIDTH 5 0
BBX 4 7 1 -1
BITMAP
10
60
80
60
90
60
10
ENDCHAR
STARTCHAR char27
ENCODING 27
SWIDTH 640 0
DWIDTH 5 0
BBX 4 7 1 -1
BITMAP
80
60
10
60
90
60
80
ENDCHAR
STARTCHAR char28
ENCODING 28
SWIDTH 640 0
DWIDTH 5 0
BBX 5 5 0 0
BITMAP
F8
50
50
50
50
ENDCHAR
STARTCHAR char29
ENCODING 29
SWIDTH 640 0
DWIDTH 5 0
BBX 5 7 0 -1
BITMAP
08
10
F8
20
F8
40
80
ENDCHAR
STARTCHAR char30
ENCODING 30
SWIDTH 640 0
DWIDTH 5 0
BBX 4 7 1 -1
BITMAP
20
50
40
F0
40
E0
90
ENDCHAR
STARTCHAR char31
ENCODING 31
SWIDTH 640 0
DWIDTH 5 0
BBX 1 1 2 2
BITMAP
80
ENDCHAR
STARTCHAR char32
ENCODING 32
SWIDTH 640 0
DWIDTH 5 0
BBX 0 0 0 0
BITMAP
ENDCHAR
STARTCHAR char33
ENCODING 33
SWIDTH 640 0
DWIDTH 5 0
BBX 1 7 2 0
BITMAP
80
80
80
80
80
00
80
ENDCHAR
STARTCHAR char34
ENCODING 34
SWIDTH 640 0
DWIDTH 5 0
BBX 3 3 1 4
BITMAP
A0
A0
A0
ENDCHAR
STARTCHAR char35
ENCODING 35
SWIDTH 640 0
DWIDTH 5 0
BBX 5 5 0 1
BITMAP
50
F8
50
F8
50
ENDCHAR
STARTCHAR char36
ENCODING 36
SWIDTH 640 0
DWIDTH 5 0
BBX 5 7 0 0
BITMAP
20
78
A0
70
28
F0
20
ENDCHAR
STARTCHAR char37
ENCODING 37
SWIDTH 640 0
DWIDTH 5 0
BBX 5 6 0 0
BITMAP
C8
D0
20
20
58
98
ENDCHAR
STARTCHAR char38
ENCODING 38
SWIDTH 640 0
DWIDTH 5 0
BBX 5 7 0 0
BITMAP
20
50
50
60
B8
90
68
ENDCHAR
STARTCHAR char39
ENCODING 39
SWIDTH 640 0
DWIDTH 5 0
BBX 2 4 2 3
BITMAP
40
40
40
80
ENDCHAR
STARTCHAR char40
ENCODING 40
SWIDTH 640 0
DWIDTH 5 0
BBX 2 7 2 0
BITMAP
40
80
80
80
80
80
40
ENDCHAR
STARTCHAR char41
ENCODING 41
SWIDTH 640 0
DWIDTH 5 0
BBX 2 7 2 0
BITMAP
80
40
40
40
40
40
80
ENDCHAR
STARTCHAR char42
ENCODING 42
SWIDTH 640 0
DWIDTH 5 0
BBX 4 5 1 0
BITMAP
90
60
F0
60
90
ENDCHAR
STARTCHAR char43
ENCODING 43
SWIDTH 640 0
DWIDTH 5 0
BBX 5 5 0 0
BITMAP
20
20
F8
20
20
ENDCHAR
STARTCHAR char44
ENCODING 44
SWIDTH 640 0
DWIDTH 5 0
BBX 2 4 2 -2
BITMAP
40
40
40
80
ENDCHAR
STARTCHAR char45
ENCODING 45
SWIDTH 640 0
DWIDTH 5 0
BBX 5 1 0 2
BITMAP
F8
ENDCHAR
STARTCHAR char46
ENCODING 46
SWIDTH 640 0
DWIDTH 5 0
BBX 2 2 2 0
BITMAP
C0
C0
ENDCHAR
STARTCHAR char47
ENCODING 47
SWIDTH 640 0
DWIDTH 5 0
BBX 4 6 1 0
BITMAP
10
10
20
40
80
80
ENDCHAR
STARTCHAR char48
ENCODING 48
SWIDTH 640 0
DWIDTH 5 0
BBX 4 7 1 0
BITMAP
60
90
B0
D0
90
90
60
ENDCHAR
STARTCHAR char49
ENCODING 49
SWIDTH 640 0
DWIDTH 5 0
BBX 3 7 1 0
BITMAP
40
C0
40
40
40
40
E0
ENDCHAR
STARTCHAR char50
ENCODING 50
SWIDTH 640 0
DWIDTH 5 0
BBX 4 7 1 0
BITMAP
60
90
10
20
40
80
F0
ENDCHAR
STARTCHAR char51
ENCODING 51
SWIDTH 640 0
DWIDTH 5 0
BBX 4 7 1 0
BITMAP
E0
10
10
60
10
10
E0
ENDCHAR
STARTCHAR char52
ENCODING 52
SWIDTH 640 0
DWIDTH 5 0
BBX 5 7 0 0
BITMAP
10
30
50
90
F8
10
10
ENDCHAR
STARTCHAR char53
ENCODING 53
SWIDTH 640 0
DWIDTH 5 0
BBX 4 7 1 0
BITMAP
F0
80
80
E0
10
10
E0
ENDCHAR
STARTCHAR char54
ENCODING 54
SWIDTH 640 0
DWIDTH 5 0
BBX 4 7 1 0
BITMAP
60
90
80
E0
90
90
60
ENDCHAR
STARTCHAR char55
ENCODING 55
SWIDTH 640 0
DWIDTH 5 0
BBX 4 7 1 0
BITMAP
F0
10
10
20
20
40
40
ENDCHAR
STARTCHAR char56
ENCODING 56
SWIDTH 640 0
DWIDTH 5 0
BBX 4 7 1 0
BITMAP
60
90
90
60
90
90
60
ENDCHAR
STARTCHAR char57
ENCODING 57
SWIDTH 640 0
DWIDTH 5 0
BBX 4 7 1 0
BITMAP
60
90
90
70
10
90
60
ENDCHAR
STARTCHAR char58
ENCODING 58
SWIDTH 640 0
DWIDTH 5 0
BBX 1 5 2 0
BITMAP
80
80
00
80
80
ENDCHAR
STARTCHAR char59
ENCODING 59
SWIDTH 640 0
DWIDTH 5 0
BBX 2 7 2 -2
BITMAP
40
40
00
40
40
40
80
ENDCHAR
STARTCHAR char60
ENCODING 60
SWIDTH 640 0
DWIDTH 5 0
BBX 3 5 1 1
BITMAP
20
40
80
40
20
ENDCHAR
STARTCHAR char61
ENCODING 61
SWIDTH 640 0
DWIDTH 5 0
BBX 4 3 1 1
BITMAP
F0
00
F0
ENDCHAR
STARTCHAR char62
ENCODING 62
SWIDTH 640 0
DWIDTH 5 0
BBX 3 5 1 1
BITMAP
80
40
20
40
80
ENDCHAR
STARTCHAR char63
ENCODING 63
SWIDTH 640 0
DWIDTH 5 0
BBX 4 7 1 0
BITMAP
60
90
10
20
40
00
40
ENDCHAR
STARTCHAR char64
ENCODING 64
SWIDTH 640 0
DWIDTH 5 0
BBX 4 7 1 0
BITMAP
60
90
B0
D0
B0
80
70
ENDCHAR
STARTCHAR char65
ENCODING 65
SWIDTH 640 0
DWIDTH 5 0
BBX 4 7 1 0
BITMAP
60
90
90
F0
90
90
90
ENDCHAR
STARTCHAR char66
ENCODING 66
SWIDTH 640 0
DWIDTH 5 0
BBX 4 7 1 0
BITMAP
E0
90
90
E0
90
90
E0
ENDCHAR
STARTCHAR char67
ENCODING 67
SWIDTH 640 0
DWIDTH 5 0
BBX 4 7 1 0
BITMAP
60
90
80
80
80
90
60
ENDCHAR
STARTCHAR char68
ENCODING 68
SWIDTH 640 0
DWIDTH 5 0
BBX 4 7 1 0
BITMAP
E0
90
90
90
90
90
E0
ENDCHAR
STARTCHAR char69
ENCODING 69
SWIDTH 640 0
DWIDTH 5 0
BBX 4 7 1 0
BITMAP
F0
80
80
E0
80
80
F0
ENDCHAR
STARTCHAR char70
ENCODING 70
SWIDTH 640 0
DWIDTH 5 0
BBX 4 7 1 0
BITMAP
F0
80
80
E0
80
80
80
ENDCHAR
STARTCHAR char71
ENCODING 71
SWIDTH 640 0
DWIDTH 5 0
BBX 4 7 1 0
BITMAP
60
90
80
80
B0
90
60
ENDCHAR
STARTCHAR char72
ENCODING 72
SWIDTH 640 0
DWIDTH 5 0
BBX 4 7 1 0
BITMAP
90
90
90
F0
90
90
90
ENDCHAR
STARTCHAR char73
ENCODING 73
SWIDTH 640 0
DWIDTH 5 0
BBX 3 7 2 0
BITMAP
E0
40
40
40
40
40
E0
ENDCHAR
STARTCHAR char74
ENCODING 74
SWIDTH 640 0
DWIDTH 5 0
BBX 4 7 1 0
BITMAP
10
10
10
10
10
90
60
ENDCHAR
STARTCHAR char75
ENCODING 75
SWIDTH 640 0
DWIDTH 5 0
BBX 4 7 1 0
BITMAP
90
90
A0
C0
A0
90
90
ENDCHAR
STARTCHAR char76
ENCODING 76
SWIDTH 640 0
DWIDTH 5 0
BBX 4 7 1 0
BITMAP
80
80
80
80
80
80
F0
ENDCHAR
STARTCHAR char77
ENCODING 77
SWIDTH 640 0
DWIDTH 5 0
BBX 4 7 1 0
BITMAP
90
F0
F0
90
90
90
90
ENDCHAR
STARTCHAR char78
ENCODING 78
SWIDTH 640 0
DWIDTH 5 0
BBX 4 7 1 0
BITMAP
90
90
D0
B0
90
90
90
ENDCHAR
STARTCHAR char79
ENCODING 79
SWIDTH 640 0
DWIDTH 5 0
BBX 4 7 1 0
BITMAP
60
90
90
90
90
90
60
ENDCHAR
STARTCHAR char80
ENCODING 80
SWIDTH 640 0
DWIDTH 5 0
BBX 4 7 1 0
BITMAP
E0
90
90
E0
80
80
80
ENDCHAR
STARTCHAR char81
ENCODING 81
SWIDTH 640 0
DWIDTH 5 0
BBX 4 8 1 -1
BITMAP
60
90
90
90
90
B0
60
10
ENDCHAR
STARTCHAR char82
ENCODING 82
SWIDTH 640 0
DWIDTH 5 0
BBX 4 7 1 0
BITMAP
E0
90
90
E0
A0
90
90
ENDCHAR
STARTCHAR char83
ENCODING 83
SWIDTH 640 0
DWIDTH 5 0
BBX 4 7 1 0
BITMAP
60
90
80
60
10
90
60
ENDCHAR
STARTCHAR char84
ENCODING 84
SWIDTH 640 0
DWIDTH 5 0
BBX 5 7 0 0
BITMAP
F8
20
20
20
20
20
20
ENDCHAR
STARTCHAR char85
ENCODING 85
SWIDTH 640 0
DWIDTH 5 0
BBX 4 7 1 0
BITMAP
90
90
90
90
90
90
70
ENDCHAR
STARTCHAR char86
ENCODING 86
SWIDTH 640 0
DWIDTH 5 0
BBX 4 7 1 0
BITMAP
90
90
90
90
90
60
60
ENDCHAR
STARTCHAR char87
ENCODING 87
SWIDTH 640 0
DWIDTH 5 0
BBX 4 7 1 0
BITMAP
90
90
90
90
F0
F0
90
ENDCHAR
STARTCHAR char88
ENCODING 88
SWIDTH 640 0
DWIDTH 5 0
BBX 4 7 1 0
BITMAP
90
90
60
60
60
90
90
ENDCHAR
STARTCHAR char89
ENCODING 89
SWIDTH 640 0
DWIDTH 5 0
BBX 5 7 0 0
BITMAP
88
88
50
20
20
20
20
ENDCHAR
STARTCHAR char90
ENCODING 90
SWIDTH 640 0
DWIDTH 5 0
BBX 4 7 1 0
BITMAP
F0
10
20
40
40
80
F0
ENDCHAR
STARTCHAR char91
ENCODING 91
SWIDTH 640 0
DWIDTH 5 0
BBX 3 8 2 -1
BITMAP
E0
80
80
80
80
80
80
E0
ENDCHAR
STARTCHAR char92
ENCODING 92
SWIDTH 640 0
DWIDTH 5 0
BBX 4 6 1 0
BITMAP
80
80
40
20
10
10
ENDCHAR
STARTCHAR char93
ENCODING 93
SWIDTH 640 0
DWIDTH 5 0
BBX 3 8 1 -1
BITMAP
E0
20
20
20
20
20
20
E0
ENDCHAR
STARTCHAR char94
ENCODING 94
SWIDTH 640 0
DWIDTH 5 0
BBX 3 2 1 4
BITMAP
40
A0
ENDCHAR
STARTCHAR char95
ENCODING 95
SWIDTH 640 0
DWIDTH 5 0
BBX 5 1 0 -2
BITMAP
F8
ENDCHAR
STARTCHAR char96
ENCODING 96
SWIDTH 640 0
DWIDTH 5 0
BBX 2 4 2 3
BITMAP
80
80
80
40
ENDCHAR
STARTCHAR char97
ENCODING 97
SWIDTH 640 0
DWIDTH 5 0
BBX 4 5 1 0
BITMAP
60
10
70
90
70
ENDCHAR
STARTCHAR char98
ENCODING 98
SWIDTH 640 0
DWIDTH 5 0
BBX 4 7 1 0
BITMAP
80
80
E0
90
90
90
E0
ENDCHAR
STARTCHAR char99
ENCODING 99
SWIDTH 640 0
DWIDTH 5 0
BBX 4 5 1 0
BITMAP
70
80
80
80
70
ENDCHAR
STARTCHAR char100
ENCODING 100
SWIDTH 640 0
DWIDTH 5 0
BBX 4 7 1 0
BITMAP
10
10
70
90
90
90
70
ENDCHAR
STARTCHAR char101
ENCODING 101
SWIDTH 640 0
DWIDTH 5 0
BBX 4 5 1 0
BITMAP
60
90
F0
80
70
ENDCHAR
STARTCHAR char102
ENCODING 102
SWIDTH 640 0
DWIDTH 5 0
BBX 4 7 1 0
BITMAP
30
40
40
E0
40
40
40
ENDCHAR
STARTCHAR char103
ENCODING 103
SWIDTH 640 0
DWIDTH 5 0
BBX 4 7 1 -2
BITMAP
60
90
90
B0
50
10
E0
ENDCHAR
STARTCHAR char104
ENCODING 104
SWIDTH 640 0
DWIDTH 5 0
BBX 4 7 1 0
BITMAP
80
80
E0
90
90
90
90
ENDCHAR
STARTCHAR char105
ENCODING 105
SWIDTH 640 0
DWIDTH 5 0
BBX 3 7 2 0
BITMAP
40
00
C0
40
40
40
E0
ENDCHAR
STARTCHAR char106
ENCODING 106
SWIDTH 640 0
DWIDTH 5 0
BBX 3 9 1 -2
BITMAP
20
00
60
20
20
20
20
A0
40
ENDCHAR
STARTCHAR char107
ENCODING 107
SWIDTH 640 0
DWIDTH 5 0
BBX 4 7 1 0
BITMAP
80
80
90
A0
E0
90
90
ENDCHAR
STARTCHAR char108
ENCODING 108
SWIDTH 640 0
DWIDTH 5 0
BBX 3 7 2 0
BITMAP
C0
40
40
40
40
40
E0
ENDCHAR
STARTCHAR char109
ENCODING 109
SWIDTH 640 0
DWIDTH 5 0
BBX 5 5 0 0
BITMAP
D0
A8
A8
A8
88
ENDCHAR
STARTCHAR char110
ENCODING 110
SWIDTH 640 0
DWIDTH 5 0
BBX 4 5 1 0
BITMAP
E0
90
90
90
90
ENDCHAR
STARTCHAR char111
ENCODING 111
SWIDTH 640 0
DWIDTH 5 0
BBX 4 5 1 0
BITMAP
60
90
90
90
60
ENDCHAR
STARTCHAR char112
ENCODING 112
SWIDTH 640 0
DWIDTH 5 0
BBX 4 7 1 -2
BITMAP
E0
90
90
90
E0
80
80
ENDCHAR
STARTCHAR char113
ENCODING 113
SWIDTH 640 0
DWIDTH 5 0
BBX 4 7 1 -2
BITMAP
70
90
90
90
70
10
10
ENDCHAR
STARTCHAR char114
ENCODING 114
SWIDTH 640 0
DWIDTH 5 0
BBX 4 5 1 0
BITMAP
A0
D0
80
80
80
ENDCHAR
STARTCHAR char115
ENCODING 115
SWIDTH 640 0
DWIDTH 5 0
BBX 4 5 1 0
BITMAP
70
80
60
10
E0
ENDCHAR
STARTCHAR char116
ENCODING 116
SWIDTH 640 0
DWIDTH 5 0
BBX 4 7 1 0
BITMAP
40
40
E0
40
40
40
30
ENDCHAR
STARTCHAR char117
ENCODING 117
SWIDTH 640 0
DWIDTH 5 0
BBX 4 5 1 0
BITMAP
90
90
90
90
70
ENDCHAR
STARTCHAR char118
ENCODING 118
SWIDTH 640 0
DWIDTH 5 0
BBX 4 5 1 0
BITMAP
90
90
90
60
60
ENDCHAR
STARTCHAR char119
ENCODING 119
SWIDTH 640 0
DWIDTH 5 0
BBX 5 5 0 0
BITMAP
88
A8
A8
A8
50
ENDCHAR
STARTCHAR char120
ENCODING 120
SWIDTH 640 0
DWIDTH 5 0
BBX 4 5 1 0
BITMAP
90
90
60
90
90
ENDCHAR
STARTCHAR char121
ENCODING 121
SWIDTH 640 0
DWIDTH 5 0
BBX 4 7 1 -2
BITMAP
90
90
50
20
20
40
80
ENDCHAR
STARTCHAR char122
ENCODING 122
SWIDTH 640 0
DWIDTH 5 0
BBX 4 5 1 0
BITMAP
F0
20
40
80
F0
ENDCHAR
STARTCHAR char123
ENCODING 123
SWIDTH 640 0
DWIDTH 5 0
BBX 3 7 2 0
BITMAP
20
40
40
C0
40
40
20
ENDCHAR
STARTCHAR char124
ENCODING 124
SWIDTH 640 0
DWIDTH 5 0
BBX 1 7 2 -1
BITMAP
80
80
80
80
80
80
80
ENDCHAR
STARTCHAR char125
ENCODING 125
SWIDTH 640 0
DWIDTH 5 0
BBX 3 7 1 0
BITMAP
80
40
40
60
40
40
80
ENDCHAR
STARTCHAR char126
ENCODING 126
SWIDTH 640 0
DWIDTH 5 0
BBX 4 2 1 3
BITMAP
50
A0
ENDCHAR
STARTCHAR char127
ENCODING 127
SWIDTH 640 0
DWIDTH 5 0
BBX 0 0 0 0
BITMAP
ENDCHAR
STARTCHAR exclamdown
ENCODING 161
SWIDTH 640 0
DWIDTH 5 0
BBX 1 7 3 -1
BITMAP
80
80
00
80
80
80
80
ENDCHAR
STARTCHAR cent
ENCODING 162
SWIDTH 640 0
DWIDTH 5 0
BBX 4 7 1 0
BITMAP
20
70
A0
A0
A0
70
20
ENDCHAR
STARTCHAR sterling
ENCODING 163
SWIDTH 640 0
DWIDTH 5 0
BBX 4 7 1 0
BITMAP
30
40
40
F0
40
40
F0
ENDCHAR
STARTCHAR currency
ENCODING 164
SWIDTH 640 0
DWIDTH 5 0
BBX 4 5 1 1
BITMAP
F0
90
90
90
F0
ENDCHAR
STARTCHAR yen
ENCODING 165
SWIDTH 640 0
DWIDTH 5 0
BBX 5 7 0 0
BITMAP
88
88
50
20
F8
20
20
ENDCHAR
STARTCHAR brokenbar
ENCODING 166
SWIDTH 640 0
DWIDTH 5 0
BBX 1 8 3 -1
BITMAP
80
80
80
00
80
80
80
80
ENDCHAR
STARTCHAR section
ENCODING 167
SWIDTH 640 0
DWIDTH 5 0
BBX 4 8 1 -1
BITMAP
70
80
E0
90
90
70
10
E0
ENDCHAR
STARTCHAR diaeresis
ENCODING 168
SWIDTH 640 0
DWIDTH 5 0
BBX 4 1 1 6
BITMAP
90
ENDCHAR
STARTCHAR copyright
ENCODING 169
SWIDTH 640 0
DWIDTH 5 0
BBX 5 7 0 0
BITMAP
78
80
B0
A0
B0
80
78
ENDCHAR
STARTCHAR ordfeminine
ENCODING 170
SWIDTH 640 0
DWIDTH 5 0
BBX 5 5 1 2
BITMAP
E0
10
F0
90
68
ENDCHAR
STARTCHAR guillemotleft
ENCODING 171
SWIDTH 640 0
DWIDTH 5 0
BBX 5 3 0 2
BITMAP
48
90
48
ENDCHAR
STARTCHAR notsign
ENCODING 172
SWIDTH 640 0
DWIDTH 5 0
BBX 5 3 0 2
BITMAP
F8
08
08
ENDCHAR
STARTCHAR hyphen
ENCODING 173
SWIDTH 640 0
DWIDTH 5 0
BBX 2 1 2 3
BITMAP
C0
ENDCHAR
STARTCHAR registered
ENCODING 174
SWIDTH 640 0
DWIDTH 5 0
BBX 5 7 0 0
BITMAP
78
80
B0
B0
A8
80
78
ENDCHAR
STARTCHAR macron
ENCODING 175
SWIDTH 640 0
DWIDTH 5 0
BBX 3 1 1 6
BITMAP
E0
ENDCHAR
STARTCHAR degree
ENCODING 176
SWIDTH 640 0
DWIDTH 5 0
BBX 3 3 2 4
BITMAP
40
A0
40
ENDCHAR
STARTCHAR plusminus
ENCODING 177
SWIDTH 640 0
DWIDTH 5 0
BBX 5 5 0 1
BITMAP
20
F8
20
00
F8
ENDCHAR
STARTCHAR twosuperior
ENCODING 178
SWIDTH 640 0
DWIDTH 5 0
BBX 4 5 1 2
BITMAP
E0
10
60
80
F0
ENDCHAR
STARTCHAR threesuperior
ENCODING 179
SWIDTH 640 0
DWIDTH 5 0
BBX 4 5 1 2
BITMAP
E0
10
60
10
E0
ENDCHAR
STARTCHAR acute
ENCODING 180
SWIDTH 640 0
DWIDTH 5 0
BBX 2 2 2 5
BITMAP
40
80
ENDCHAR
STARTCHAR mu
ENCODING 181
SWIDTH 640 0
DWIDTH 5 0
BBX 4 7 1 -2
BITMAP
90
90
90
B0
D0
80
80
ENDCHAR
STARTCHAR paragraph
ENCODING 182
SWIDTH 640 0
DWIDTH 5 0
BBX 5 8 0 -1
BITMAP
78
E8
E8
68
28
28
28
28
ENDCHAR
STARTCHAR periodcentered
ENCODING 183
SWIDTH 640 0
DWIDTH 5 0
BBX 2 2 2 2
BITMAP
C0
C0
ENDCHAR
STARTCHAR cedilla
ENCODING 184
SWIDTH 640 0
DWIDTH 5 0
BBX 2 2 2 -2
BITMAP
40
80
ENDCHAR
STARTCHAR onesuperior
ENCODING 185
SWIDTH 640 0
DWIDTH 5 0
BBX 3 5 1 2
BITMAP
20
E0
20
20
20
ENDCHAR
STARTCHAR masculine
ENCODING 186
SWIDTH 640 0
DWIDTH 5 0
BBX 4 5 1 2
BITMAP
60
90
90
90
60
ENDCHAR
STARTCHAR guillemotright
ENCODING 187
SWIDTH 640 0
DWIDTH 5 0
BBX 5 3 0 2
BITMAP
90
48
90
ENDCHAR
STARTCHAR onequarter
ENCODING 188
SWIDTH 640 0
DWIDTH 5 0
BBX 5 9 0 -2
BITMAP
C0
40
48
50
20
48
A8
38
08
ENDCHAR
STARTCHAR onehalf
ENCODING 189
SWIDTH 640 0
DWIDTH 5 0
BBX 5 9 0 -2
BITMAP
C0
40
48
50
20
58
88
10
38
ENDCHAR
STARTCHAR threequarters
ENCODING 190
SWIDTH 640 0
DWIDTH 5 0
BBX 5 9 0 -2
BITMAP
E0
40
28
D0
20
48
A8
38
08
ENDCHAR
STARTCHAR questiondown
ENCODING 191
SWIDTH 640 0
DWIDTH 5 0
BBX 4 7 1 -1
BITMAP
20
20
00
60
80
80
70
ENDCHAR
STARTCHAR Agrave
ENCODING 192
SWIDTH 640 0
DWIDTH 5 0
BBX 4 8 1 -1
BITMAP
40
20
00
60
90
F0
90
90
ENDCHAR
STARTCHAR Aacute
ENCODING 193
SWIDTH 640 0
DWIDTH 5 0
BBX 4 8 1 -1
BITMAP
20
40
00
60
90
F0
90
90
ENDCHAR
STARTCHAR Acircumflex
ENCODING 194
SWIDTH 640 0
DWIDTH 5 0
BBX 4 8 1 -1
BITMAP
40
A0
00
60
90
F0
90
90
ENDCHAR
STARTCHAR Atilde
ENCODING 195
SWIDTH 640 0
DWIDTH 5 0
BBX 4 8 1 -1
BITMAP
50
A0
00
60
90
F0
90
90
ENDCHAR
STARTCHAR Adiaeresis
ENCODING 196
SWIDTH 640 0
DWIDTH 5 0
BBX 4 7 1 -1
BITMAP
90
00
60
90
F0
90
90
ENDCHAR
STARTCHAR Aring
ENCODING 197
SWIDTH 640 0
DWIDTH 5 0
BBX 4 8 1 -1
BITMAP
60
90
60
60
90
F0
90
90
ENDCHAR
STARTCHAR AE
ENCODING 198
SWIDTH 640 0
DWIDTH 5 0
BBX 5 7 0 0
BITMAP
38
30
50
58
F0
90
98
ENDCHAR
STARTCHAR Ccedilla
ENCODING 199
SWIDTH 640 0
DWIDTH 5 0
BBX 5 9 0 -2
BITMAP
38
48
80
80
80
40
38
10
20
ENDCHAR
STARTCHAR Egrave
ENCODING 200
SWIDTH 640 0
DWIDTH 5 0
BBX 4 8 1 -1
BITMAP
40
20
00
F0
80
E0
80
F0
ENDCHAR
STARTCHAR Eacute
ENCODING 201
SWIDTH 640 0
DWIDTH 5 0
BBX 4 8 1 -1
BITMAP
20
40
00
F0
80
E0
80
F0
ENDCHAR
STARTCHAR Ecircumflex
ENCODING 202
SWIDTH 640 0
DWIDTH 5 0
BBX 4 8 1 -1
BITMAP
40
A0
00
F0
80
E0
80
F0
ENDCHAR
STARTCHAR Ediaeresis
ENCODING 203
SWIDTH 640 0
DWIDTH 5 0
BBX 4 7 1 -1
BITMAP
A0
00
F0
80
E0
80
F0
ENDCHAR
STARTCHAR Igrave
ENCODING 204
SWIDTH 640 0
DWIDTH 5 0
BBX 3 8 2 -1
BITMAP
40
20
00
E0
40
40
40
E0
ENDCHAR
STARTCHAR Iacute
ENCODING 205
SWIDTH 640 0
DWIDTH 5 0
BBX 3 8 2 -1
BITMAP
20
40
00
E0
40
40
40
E0
ENDCHAR
STARTCHAR Icircumflex
ENCODING 206
SWIDTH 640 0
DWIDTH 5 0
BBX 3 8 2 -1
BITMAP
40
A0
00
E0
40
40
40
E0
ENDCHAR
STARTCHAR Idiaeresis
ENCODING 207
SWIDTH 640 0
DWIDTH 5 0
BBX 3 8 2 -1
BITMAP
A0
00
E0
40
40
40
40
E0
ENDCHAR
STARTCHAR ETH
ENCODING 208
SWIDTH 640 0
DWIDTH 5 0
BBX 5 7 0 0
BITMAP
70
48
48
E8
48
48
70
ENDCHAR
STARTCHAR Ntilde
ENCODING 209
SWIDTH 640 0
DWIDTH 5 0
BBX 4 7 1 0
BITMAP
50
A0
00
90
D0
B0
90
ENDCHAR
STARTCHAR Ograve
ENCODING 210
SWIDTH 640 0
DWIDTH 5 0
BBX 4 8 1 -1
BITMAP
40
20
00
60
90
90
90
60
ENDCHAR
STARTCHAR Oacute
ENCODING 211
SWIDTH 640 0
DWIDTH 5 0
BBX 4 8 1 -1
BITMAP
20
40
00
60
90
90
90
60
ENDCHAR
STARTCHAR Ocircumflex
ENCODING 212
SWIDTH 640 0
DWIDTH 5 0
BBX 4 8 1 -1
BITMAP
20
50
00
60
90
90
90
60
ENDCHAR
STARTCHAR Otilde
ENCODING 213
SWIDTH 640 0
DWIDTH 5 0
BBX 4 8 1 -1
BITMAP
50
A0
00
60
90
90
90
60
ENDCHAR
STARTCHAR Odiaeresis
ENCODING 214
SWIDTH 640 0
DWIDTH 5 0
BBX 4 7 1 0
BITMAP
90
00
60
90
90
90
60
ENDCHAR
STARTCHAR multiply
ENCODING 215
SWIDTH 640 0
DWIDTH 5 0
BBX 5 5 1 1
BITMAP
88
50
20
50
88
ENDCHAR
STARTCHAR Ooblique
ENCODING 216
SWIDTH 640 0
DWIDTH 5 0
BBX 5 7 0 0
BITMAP
38
48
58
68
48
C8
B0
ENDCHAR
STARTCHAR Ugrave
ENCODING 217
SWIDTH 640 0
DWIDTH 5 0
BBX 4 8 1 -1
BITMAP
40
20
00
90
90
90
90
60
ENDCHAR
STARTCHAR Uacute
ENCODING 218
SWIDTH 640 0
DWIDTH 5 0
BBX 4 8 1 -1
BITMAP
20
40
00
90
90
90
90
60
ENDCHAR
STARTCHAR Ucircumflex
ENCODING 219
SWIDTH 640 0
DWIDTH 5 0
BBX 4 8 1 -1
BITMAP
20
50
00
90
90
90
90
60
ENDCHAR
STARTCHAR Udiaeresis
ENCODING 220
SWIDTH 640 0
DWIDTH 5 0
BBX 4 8 1 -1
BITMAP
90
00
90
90
90
90
90
60
ENDCHAR
STARTCHAR Yacute
ENCODING 221
SWIDTH 640 0
DWIDTH 5 0
BBX 5 8 1 -1
BITMAP
10
20
88
88
50
20
20
20
ENDCHAR
STARTCHAR THORN
ENCODING 222
SWIDTH 640 0
DWIDTH 5 0
BBX 4 7 1 0
BITMAP
80
E0
90
90
E0
80
80
ENDCHAR
STARTCHAR ssharp
ENCODING 223
SWIDTH 640 0
DWIDTH 5 0
BBX 5 8 1 -1
BITMAP
60
90
90
A0
90
88
88
B0
ENDCHAR
STARTCHAR agrave
ENCODING 224
SWIDTH 640 0
DWIDTH 5 0
BBX 4 8 1 -1
BITMAP
40
20
00
60
10
70
90
70
ENDCHAR
STARTCHAR aacute
ENCODING 225
SWIDTH 640 0
DWIDTH 5 0
BBX 4 8 1 -1
BITMAP
20
40
00
60
10
70
90
70
ENDCHAR
STARTCHAR acircumflex
ENCODING 226
SWIDTH 640 0
DWIDTH 5 0
BBX 4 8 1 -1
BITMAP
20
50
00
60
10
70
90
70
ENDCHAR
STARTCHAR atilde
ENCODING 227
SWIDTH 640 0
DWIDTH 5 0
BBX 4 8 1 -1
BITMAP
50
A0
00
60
10
70
90
70
ENDCHAR
STARTCHAR adiaeresis
ENCODING 228
SWIDTH 640 0
DWIDTH 5 0
BBX 4 7 1 0
BITMAP
50
00
60
10
70
90
70
ENDCHAR
STARTCHAR aring
ENCODING 229
SWIDTH 640 0
DWIDTH 5 0
BBX 4 8 1 -1
BITMAP
20
50
20
60
10
70
90
70
ENDCHAR
STARTCHAR ae
ENCODING 230
SWIDTH 640 0
DWIDTH 5 0
BBX 5 6 1 0
BITMAP
D8
28
78
A0
A0
D8
ENDCHAR
STARTCHAR ccedilla
ENCODING 231
SWIDTH 640 0
DWIDTH 5 0
BBX 4 8 1 -2
BITMAP
70
80
80
80
80
70
20
40
ENDCHAR
STARTCHAR egrave
ENCODING 232
SWIDTH 640 0
DWIDTH 5 0
BBX 4 8 1 -1
BITMAP
40
20
00
60
90
F0
80
70
ENDCHAR
STARTCHAR eacute
ENCODING 233
SWIDTH 640 0
DWIDTH 5 0
BBX 4 8 1 -1
BITMAP
20
40
00
60
90
F0
80
70
ENDCHAR
STARTCHAR ecircumflex
ENCODING 234
SWIDTH 640 0
DWIDTH 5 0
BBX 4 8 1 -1
BITMAP
20
50
00
60
90
F0
80
70
ENDCHAR
STARTCHAR ediaeresis
ENCODING 235
SWIDTH 640 0
DWIDTH 5 0
BBX 4 7 1 0
BITMAP
90
00
60
90
F0
80
70
ENDCHAR
STARTCHAR igrave
ENCODING 236
SWIDTH 640 0
DWIDTH 5 0
BBX 2 7 2 0
BITMAP
80
40
00
C0
40
40
40
ENDCHAR
STARTCHAR iacute
ENCODING 237
SWIDTH 640 0
DWIDTH 5 0
BBX 2 7 2 0
BITMAP
40
80
00
C0
40
40
40
ENDCHAR
STARTCHAR icircumflex
ENCODING 238
SWIDTH 640 0
DWIDTH 5 0
BBX 3 7 2 0
BITMAP
40
A0
00
C0
40
40
40
ENDCHAR
STARTCHAR idiaeresis
ENCODING 239
SWIDTH 640 0
DWIDTH 5 0
BBX 3 7 2 0
BITMAP
A0
00
C0
40
40
40
40
ENDCHAR
STARTCHAR eth
ENCODING 240
SWIDTH 640 0
DWIDTH 5 0
BBX 4 8 1 -1
BITMAP
50
20
50
10
70
90
90
60
ENDCHAR
STARTCHAR ntilde
ENCODING 241
SWIDTH 640 0
DWIDTH 5 0
BBX 4 7 1 0
BITMAP
50
A0
00
A0
D0
90
90
ENDCHAR
STARTCHAR ograve
ENCODING 242
SWIDTH 640 0
DWIDTH 5 0
BBX 4 7 1 0
BITMAP
40
20
00
60
90
90
60
ENDCHAR
STARTCHAR oacute
ENCODING 243
SWIDTH 640 0
DWIDTH 5 0
BBX 4 7 1 0
BITMAP
20
40
00
60
90
90
60
ENDCHAR
STARTCHAR ocircumflex
ENCODING 244
SWIDTH 640 0
DWIDTH 5 0
BBX 4 7 1 0
BITMAP
20
50
00
60
90
90
60
ENDCHAR
STARTCHAR otilde
ENCODING 245
SWIDTH 640 0
DWIDTH 5 0
BBX 4 7 1 0
BITMAP
50
A0
00
60
90
90
60
ENDCHAR
STARTCHAR odiaeresis
ENCODING 246
SWIDTH 640 0
DWIDTH 5 0
BBX 4 7 1 0
BITMAP
90
00
60
90
90
90
60
ENDCHAR
STARTCHAR division
ENCODING 247
SWIDTH 640 0
DWIDTH 5 0
BBX 5 5 1 1
BITMAP
20
00
F8
00
20
ENDCHAR
STARTCHAR oslash
ENCODING 248
SWIDTH 640 0
DWIDTH 5 0
BBX 5 6 0 0
BITMAP
30
48
58
68
48
B0
ENDCHAR
STARTCHAR ugrave
ENCODING 249
SWIDTH 640 0
DWIDTH 5 0
BBX 4 7 1 0
BITMAP
40
20
00
90
90
B0
50
ENDCHAR
STARTCHAR uacute
ENCODING 250
SWIDTH 640 0
DWIDTH 5 0
BBX 4 7 1 0
BITMAP
20
40
00
90
90
B0
50
ENDCHAR
STARTCHAR ucircumflex
ENCODING 251
SWIDTH 640 0
DWIDTH 5 0
BBX 4 7 1 0
BITMAP
20
50
00
90
90
B0
50
ENDCHAR
STARTCHAR udiaeresis
ENCODING 252
SWIDTH 640 0
DWIDTH 5 0
BBX 4 7 1 0
BITMAP
90
00
90
90
90
B0
50
ENDCHAR
STARTCHAR yacute
ENCODING 253
SWIDTH 640 0
DWIDTH 5 0
BBX 4 9 1 -2
BITMAP
20
40
00
90
50
20
20
40
80
ENDCHAR
STARTCHAR thorn
ENCODING 254
SWIDTH 640 0
DWIDTH 5 0
BBX 4 9 1 -2
BITMAP
80
A0
D0
90
90
90
E0
80
80
ENDCHAR
STARTCHAR ydiaeresis
ENCODING 255
SWIDTH 640 0
DWIDTH 5 0
BBX 4 9 1 -2
BITMAP
90
00
90
90
50
20
20
40
80
ENDCHAR
ENDFONT
